<svg width="34" height="26" viewBox="0 0 34 26" fill="none" xmlns="http://www.w3.org/2000/svg">
<path d="M20.1369 26C22.8983 26 25.1842 23.7425 24.6732 21.0288C24.3528 19.3274 23.8679 17.6594 23.2235 16.0502C21.9602 12.8958 20.1087 10.0295 17.7745 7.61517C15.4403 5.20085 12.6692 3.2857 9.61949 1.97908C8.11383 1.33401 6.55481 0.843491 4.96489 0.512149C2.26154 -0.0512291 0 2.23853 0 4.99995V21C0 23.7614 2.23858 26 5 26H20.1369Z" fill="#615DFF"/>
<g style="mix-blend-mode:multiply">
<path d="M13.701 26C10.9396 26 8.65362 23.7425 9.16469 21.0288C9.48511 19.3274 9.96998 17.6594 10.6144 16.0502C11.8777 12.8958 13.7292 10.0295 16.0634 7.61517C18.3976 5.20085 21.1687 3.2857 24.2184 1.97908C25.7241 1.33401 27.2831 0.843491 28.873 0.512149C31.5764 -0.0512291 33.8379 2.23853 33.8379 4.99995V21C33.8379 23.7614 31.5993 26 28.8379 26H13.701Z" fill="#3DD9EB"/>
</g>
</svg>
