<svg width="213" height="32" viewBox="0 0 213 32" fill="none" xmlns="http://www.w3.org/2000/svg">
<path d="M47.6445 10.9844L43.9766 25H40.3555L45.6875 7.9375H47.9492L47.6445 10.9844ZM50.5391 25L46.8477 10.9844L46.5078 7.9375H48.8047L54.1836 25H50.5391ZM50.668 18.6367V21.4844H42.9688V18.6367H50.668ZM61.7891 22.1992V7H65.082V25L62.1055 25.0117L61.7891 22.1992ZM55.2148 19.1055V18.2617C55.2148 17.2305 55.3008 16.3281 55.4727 15.5547C55.6523 14.7812 55.918 14.1367 56.2695 13.6211C56.6211 13.1055 57.0508 12.7227 57.5586 12.4727C58.0742 12.2148 58.6641 12.0859 59.3281 12.0859C59.9297 12.0859 60.457 12.2383 60.9102 12.543C61.3711 12.8398 61.7617 13.2578 62.082 13.7969C62.4023 14.3359 62.6602 14.9727 62.8555 15.707C63.0508 16.4414 63.1875 17.2461 63.2656 18.1211V19.3398C63.1719 20.168 63.0273 20.9414 62.832 21.6602C62.6445 22.3789 62.3867 23.0039 62.0586 23.5352C61.7383 24.0664 61.3516 24.4844 60.8984 24.7891C60.4453 25.0859 59.918 25.2344 59.3164 25.2344C58.6523 25.2344 58.0625 25.1016 57.5469 24.8359C57.0391 24.5703 56.6094 24.1797 56.2578 23.6641C55.9141 23.1406 55.6523 22.5 55.4727 21.7422C55.3008 20.9766 55.2148 20.0977 55.2148 19.1055ZM58.4961 18.2617V19.1055C58.4961 19.6992 58.5234 20.2109 58.5781 20.6406C58.6406 21.0625 58.7383 21.4102 58.8711 21.6836C59.0117 21.9492 59.1953 22.1484 59.4219 22.2812C59.6484 22.4062 59.9297 22.4688 60.2656 22.4688C60.7031 22.4688 61.0586 22.3594 61.332 22.1406C61.6055 21.9141 61.8086 21.6055 61.9414 21.2148C62.082 20.8164 62.1602 20.3594 62.1758 19.8438V17.6289C62.1602 17.1992 62.1094 16.8125 62.0234 16.4688C61.9375 16.125 61.8164 15.832 61.6602 15.5898C61.5039 15.3477 61.3086 15.1602 61.0742 15.0273C60.8477 14.8945 60.582 14.8281 60.2773 14.8281C59.9492 14.8281 59.668 14.8945 59.4336 15.0273C59.207 15.1602 59.0273 15.3672 58.8945 15.6484C58.7617 15.9219 58.6602 16.2773 58.5898 16.7148C58.5273 17.1445 58.4961 17.6602 58.4961 18.2617ZM70.8594 14.9453V25H67.5664V12.3203H70.6602L70.8594 14.9453ZM70.3906 18.2266L69.4883 18.25C69.4727 17.3594 69.5508 16.5391 69.7227 15.7891C69.8945 15.0391 70.1523 14.3867 70.4961 13.832C70.8477 13.2773 71.2891 12.8477 71.8203 12.543C72.3516 12.2383 72.9727 12.0859 73.6836 12.0859C74.1445 12.0859 74.5703 12.1719 74.9609 12.3438C75.3516 12.5078 75.6914 12.7695 75.9805 13.1289C76.2695 13.4805 76.4922 13.9414 76.6484 14.5117C76.8047 15.0742 76.8828 15.75 76.8828 16.5391V25H73.6016V16.9375C73.6016 16.375 73.5469 15.9453 73.4375 15.6484C73.3281 15.3438 73.1719 15.1328 72.9688 15.0156C72.7656 14.8906 72.5156 14.8281 72.2188 14.8281C71.9062 14.8281 71.6328 14.9141 71.3984 15.0859C71.1641 15.2578 70.9727 15.5 70.8242 15.8125C70.6836 16.1172 70.5742 16.4766 70.4961 16.8906C70.4258 17.3047 70.3906 17.75 70.3906 18.2266ZM76.5664 17.8984L75.3828 18.0508C75.3672 17.2148 75.4414 16.4375 75.6055 15.7188C75.7695 14.9922 76.0234 14.3594 76.3672 13.8203C76.7109 13.2734 77.1406 12.8477 77.6562 12.543C78.1797 12.2383 78.7852 12.0859 79.4727 12.0859C79.9883 12.0859 80.457 12.1719 80.8789 12.3438C81.3008 12.5156 81.6602 12.793 81.957 13.1758C82.2617 13.5508 82.4922 14.0469 82.6484 14.6641C82.8125 15.2812 82.8945 16.0312 82.8945 16.9141V25H79.6016V16.9258C79.6016 16.3555 79.5469 15.918 79.4375 15.6133C79.3281 15.3086 79.1719 15.1016 78.9688 14.9922C78.7656 14.8828 78.5234 14.8281 78.2422 14.8281C77.9609 14.8281 77.7148 14.9062 77.5039 15.0625C77.3008 15.2188 77.1289 15.4375 76.9883 15.7188C76.8477 15.9922 76.7422 16.3164 76.6719 16.6914C76.6016 17.0586 76.5664 17.4609 76.5664 17.8984ZM88.8125 12.3203V25H85.5195V12.3203H88.8125ZM85.3672 9.03906C85.3672 8.53125 85.5273 8.11328 85.8477 7.78516C86.1758 7.44922 86.6133 7.28125 87.1602 7.28125C87.7148 7.28125 88.1523 7.44922 88.4727 7.78516C88.793 8.11328 88.9531 8.53125 88.9531 9.03906C88.9531 9.53906 88.7891 9.95703 88.4609 10.293C88.1406 10.6211 87.7109 10.7852 87.1719 10.7852C86.6172 10.7852 86.1758 10.6211 85.8477 10.293C85.5273 9.95703 85.3672 9.53906 85.3672 9.03906ZM94.6367 15.0273V25H91.3438V12.3203H94.4258L94.6367 15.0273ZM94.1445 18.2266L93.2656 18.25C93.25 17.2969 93.3398 16.4414 93.5352 15.6836C93.7383 14.9258 94.0234 14.2812 94.3906 13.75C94.7656 13.2109 95.2109 12.8008 95.7266 12.5195C96.25 12.2305 96.832 12.0859 97.4727 12.0859C97.9648 12.0859 98.4141 12.1719 98.8203 12.3438C99.2344 12.5156 99.5898 12.7891 99.8867 13.1641C100.184 13.5391 100.414 14.0391 100.578 14.6641C100.742 15.2812 100.824 16.0391 100.824 16.9375V25H97.5312V16.9141C97.5312 16.3672 97.4766 15.9453 97.3672 15.6484C97.2578 15.3438 97.0938 15.1328 96.875 15.0156C96.6562 14.8906 96.3828 14.8281 96.0547 14.8281C95.7422 14.8281 95.4648 14.918 95.2227 15.0977C94.9805 15.2695 94.7773 15.5078 94.6133 15.8125C94.457 16.1172 94.3359 16.4766 94.25 16.8906C94.1719 17.3047 94.1367 17.75 94.1445 18.2266ZM113.375 25H110.363L110.387 22.1641H113.375C114.203 22.1641 114.848 22.0156 115.309 21.7188C115.77 21.4219 116.094 20.9531 116.281 20.3125C116.477 19.6719 116.574 18.832 116.574 17.793V15.1328C116.574 14.3438 116.523 13.6758 116.422 13.1289C116.32 12.5742 116.148 12.1289 115.906 11.793C115.664 11.4492 115.34 11.1953 114.934 11.0312C114.527 10.8672 114.023 10.7852 113.422 10.7852H110.305V7.9375H113.422C114.406 7.9375 115.301 8.09766 116.105 8.41797C116.91 8.73828 117.602 9.20703 118.18 9.82422C118.758 10.4336 119.203 11.1875 119.516 12.0859C119.828 12.9844 119.984 14.0078 119.984 15.1562V17.793C119.984 18.9492 119.828 19.9727 119.516 20.8633C119.203 21.7539 118.758 22.5078 118.18 23.125C117.609 23.7344 116.918 24.1992 116.105 24.5195C115.293 24.8398 114.383 25 113.375 25ZM112.355 7.9375V25H108.922V7.9375H112.355ZM127.918 22.082V16.2227C127.918 15.8398 127.871 15.5352 127.777 15.3086C127.691 15.082 127.559 14.918 127.379 14.8164C127.207 14.707 126.996 14.6523 126.746 14.6523C126.465 14.6523 126.23 14.7109 126.043 14.8281C125.855 14.9453 125.715 15.1133 125.621 15.332C125.535 15.5508 125.492 15.8125 125.492 16.1172H122.199C122.199 15.5703 122.305 15.0547 122.516 14.5703C122.727 14.0781 123.035 13.6484 123.441 13.2812C123.855 12.9062 124.348 12.6133 124.918 12.4023C125.488 12.1914 126.129 12.0859 126.84 12.0859C127.684 12.0859 128.434 12.2305 129.09 12.5195C129.746 12.8008 130.266 13.25 130.648 13.8672C131.031 14.4844 131.223 15.2852 131.223 16.2695V21.918C131.223 22.6289 131.258 23.207 131.328 23.6523C131.406 24.0977 131.52 24.4805 131.668 24.8008V25H128.363C128.215 24.6484 128.102 24.2109 128.023 23.6875C127.953 23.1562 127.918 22.6211 127.918 22.082ZM128.316 17.2539L128.328 19.2227H127.121C126.809 19.2227 126.535 19.2734 126.301 19.375C126.074 19.4766 125.883 19.6211 125.727 19.8086C125.57 19.9883 125.453 20.1992 125.375 20.4414C125.305 20.6836 125.27 20.9414 125.27 21.2148C125.27 21.5195 125.312 21.7773 125.398 21.9883C125.484 22.1992 125.613 22.3594 125.785 22.4688C125.957 22.5781 126.16 22.6328 126.395 22.6328C126.754 22.6328 127.066 22.5586 127.332 22.4102C127.598 22.2617 127.793 22.082 127.918 21.8711C128.051 21.6602 128.094 21.4648 128.047 21.2852L128.797 22.5625C128.703 22.8516 128.574 23.1523 128.41 23.4648C128.254 23.7773 128.055 24.0664 127.812 24.332C127.57 24.5977 127.27 24.8164 126.91 24.9883C126.559 25.1523 126.141 25.2344 125.656 25.2344C124.977 25.2344 124.355 25.0781 123.793 24.7656C123.23 24.4531 122.785 24.0156 122.457 23.4531C122.137 22.8906 121.977 22.2227 121.977 21.4492C121.977 20.8086 122.078 20.2305 122.281 19.7148C122.492 19.1914 122.805 18.75 123.219 18.3906C123.633 18.0234 124.156 17.7422 124.789 17.5469C125.422 17.3516 126.164 17.2539 127.016 17.2539H128.316ZM139.273 21.5781C139.273 21.3594 139.199 21.1641 139.051 20.9922C138.902 20.8203 138.668 20.6445 138.348 20.4648C138.027 20.2773 137.602 20.0703 137.07 19.8438C136.492 19.6094 135.98 19.3672 135.535 19.1172C135.09 18.8672 134.711 18.5898 134.398 18.2852C134.094 17.9805 133.863 17.6328 133.707 17.2422C133.551 16.8516 133.473 16.4062 133.473 15.9062C133.473 15.3672 133.57 14.8711 133.766 14.418C133.969 13.957 134.258 13.5547 134.633 13.2109C135.008 12.8594 135.465 12.5859 136.004 12.3906C136.551 12.1875 137.164 12.0859 137.844 12.0859C138.797 12.0859 139.613 12.2539 140.293 12.5898C140.98 12.918 141.508 13.3789 141.875 13.9727C142.242 14.5664 142.426 15.2578 142.426 16.0469H139.145C139.145 15.7656 139.102 15.5156 139.016 15.2969C138.93 15.0703 138.789 14.8945 138.594 14.7695C138.406 14.6445 138.152 14.582 137.832 14.582C137.598 14.582 137.387 14.6328 137.199 14.7344C137.02 14.8359 136.875 14.9727 136.766 15.1445C136.664 15.3086 136.613 15.5039 136.613 15.7305C136.613 15.9023 136.648 16.0547 136.719 16.1875C136.797 16.3203 136.918 16.4492 137.082 16.5742C137.246 16.6992 137.465 16.832 137.738 16.9727C138.02 17.1055 138.363 17.2539 138.77 17.418C139.613 17.7305 140.305 18.0664 140.844 18.4258C141.391 18.7852 141.797 19.207 142.062 19.6914C142.328 20.168 142.461 20.7578 142.461 21.4609C142.461 22.0234 142.352 22.5352 142.133 22.9961C141.922 23.457 141.613 23.8555 141.207 24.1914C140.801 24.5273 140.312 24.7852 139.742 24.9648C139.18 25.1445 138.551 25.2344 137.855 25.2344C136.832 25.2344 135.969 25.0312 135.266 24.625C134.562 24.2188 134.031 23.6992 133.672 23.0664C133.312 22.4258 133.133 21.7617 133.133 21.0742H136.25C136.266 21.4961 136.344 21.8281 136.484 22.0703C136.633 22.3047 136.832 22.4688 137.082 22.5625C137.332 22.6562 137.609 22.7031 137.914 22.7031C138.219 22.7031 138.469 22.6641 138.664 22.5859C138.867 22.5 139.02 22.3711 139.121 22.1992C139.223 22.0195 139.273 21.8125 139.273 21.5781ZM147.746 7V25H144.465V7H147.746ZM147.277 18.2266L146.387 18.25C146.387 17.3594 146.477 16.5391 146.656 15.7891C146.844 15.0391 147.113 14.3867 147.465 13.832C147.816 13.2773 148.242 12.8477 148.742 12.543C149.25 12.2383 149.809 12.0859 150.418 12.0859C150.941 12.0859 151.418 12.1758 151.848 12.3555C152.277 12.5352 152.648 12.8164 152.961 13.1992C153.281 13.582 153.527 14.0859 153.699 14.7109C153.871 15.3359 153.957 16.0977 153.957 16.9961V25H150.664V16.9727C150.664 16.4258 150.609 15.9961 150.5 15.6836C150.391 15.3711 150.227 15.1523 150.008 15.0273C149.789 14.8945 149.516 14.8281 149.188 14.8281C148.836 14.8281 148.535 14.918 148.285 15.0977C148.043 15.2695 147.848 15.5078 147.699 15.8125C147.551 16.1172 147.441 16.4766 147.371 16.8906C147.309 17.3047 147.277 17.75 147.277 18.2266ZM156.371 7H159.641V22.0586L159.406 25H156.371V7ZM166.227 18.2383V19.0703C166.227 20.1016 166.145 21 165.98 21.7656C165.824 22.5312 165.578 23.1719 165.242 23.6875C164.914 24.2031 164.492 24.5898 163.977 24.8477C163.461 25.1055 162.852 25.2344 162.148 25.2344C161.516 25.2344 160.973 25.0859 160.52 24.7891C160.066 24.4844 159.684 24.0664 159.371 23.5352C159.066 22.9961 158.816 22.3672 158.621 21.6484C158.434 20.9219 158.297 20.1289 158.211 19.2695V18.0391C158.289 17.1953 158.422 16.4102 158.609 15.6836C158.805 14.957 159.055 14.3281 159.359 13.7969C159.664 13.2578 160.043 12.8398 160.496 12.543C160.957 12.2383 161.5 12.0859 162.125 12.0859C162.844 12.0859 163.461 12.2188 163.977 12.4844C164.492 12.7422 164.914 13.1289 165.242 13.6445C165.578 14.1602 165.824 14.8047 165.98 15.5781C166.145 16.3438 166.227 17.2305 166.227 18.2383ZM162.957 19.0703V18.2383C162.957 17.6523 162.934 17.1484 162.887 16.7266C162.84 16.3047 162.754 15.9531 162.629 15.6719C162.504 15.3906 162.324 15.1797 162.09 15.0391C161.863 14.8984 161.562 14.8281 161.188 14.8281C160.852 14.8281 160.57 14.8945 160.344 15.0273C160.117 15.1523 159.922 15.3398 159.758 15.5898C159.602 15.832 159.484 16.1211 159.406 16.457C159.336 16.7852 159.297 17.1484 159.289 17.5469V19.7617C159.297 20.3008 159.363 20.7773 159.488 21.1914C159.613 21.6055 159.812 21.9258 160.086 22.1523C160.367 22.3789 160.742 22.4922 161.211 22.4922C161.578 22.4922 161.875 22.4297 162.102 22.3047C162.328 22.1797 162.504 21.9805 162.629 21.707C162.762 21.4336 162.848 21.082 162.887 20.6523C162.934 20.2148 162.957 19.6875 162.957 19.0703ZM167.867 19.0938V18.2383C167.867 17.2461 167.984 16.3672 168.219 15.6016C168.461 14.8359 168.805 14.1953 169.25 13.6797C169.695 13.1562 170.23 12.7617 170.855 12.4961C171.488 12.2227 172.195 12.0859 172.977 12.0859C173.766 12.0859 174.473 12.2227 175.098 12.4961C175.73 12.7617 176.27 13.1562 176.715 13.6797C177.168 14.1953 177.516 14.8359 177.758 15.6016C178 16.3672 178.121 17.2461 178.121 18.2383V19.0938C178.121 20.0781 178 20.9531 177.758 21.7188C177.516 22.4844 177.168 23.1289 176.715 23.6523C176.27 24.1758 175.734 24.5703 175.109 24.8359C174.484 25.1016 173.781 25.2344 173 25.2344C172.219 25.2344 171.512 25.1016 170.879 24.8359C170.254 24.5703 169.715 24.1758 169.262 23.6523C168.809 23.1289 168.461 22.4844 168.219 21.7188C167.984 20.9531 167.867 20.0781 167.867 19.0938ZM171.148 18.2383V19.0938C171.148 19.6797 171.188 20.1875 171.266 20.6172C171.352 21.0469 171.473 21.4023 171.629 21.6836C171.793 21.9648 171.988 22.1719 172.215 22.3047C172.441 22.4375 172.703 22.5039 173 22.5039C173.297 22.5039 173.562 22.4375 173.797 22.3047C174.031 22.1719 174.223 21.9648 174.371 21.6836C174.527 21.4023 174.641 21.0469 174.711 20.6172C174.789 20.1875 174.828 19.6797 174.828 19.0938V18.2383C174.828 17.668 174.785 17.168 174.699 16.7383C174.613 16.3008 174.492 15.9453 174.336 15.6719C174.18 15.3906 173.984 15.1797 173.75 15.0391C173.523 14.8906 173.266 14.8164 172.977 14.8164C172.688 14.8164 172.43 14.8906 172.203 15.0391C171.984 15.1797 171.793 15.3906 171.629 15.6719C171.473 15.9453 171.352 16.3008 171.266 16.7383C171.188 17.168 171.148 17.668 171.148 18.2383ZM185.785 22.082V16.2227C185.785 15.8398 185.738 15.5352 185.645 15.3086C185.559 15.082 185.426 14.918 185.246 14.8164C185.074 14.707 184.863 14.6523 184.613 14.6523C184.332 14.6523 184.098 14.7109 183.91 14.8281C183.723 14.9453 183.582 15.1133 183.488 15.332C183.402 15.5508 183.359 15.8125 183.359 16.1172H180.066C180.066 15.5703 180.172 15.0547 180.383 14.5703C180.594 14.0781 180.902 13.6484 181.309 13.2812C181.723 12.9062 182.215 12.6133 182.785 12.4023C183.355 12.1914 183.996 12.0859 184.707 12.0859C185.551 12.0859 186.301 12.2305 186.957 12.5195C187.613 12.8008 188.133 13.25 188.516 13.8672C188.898 14.4844 189.09 15.2852 189.09 16.2695V21.918C189.09 22.6289 189.125 23.207 189.195 23.6523C189.273 24.0977 189.387 24.4805 189.535 24.8008V25H186.23C186.082 24.6484 185.969 24.2109 185.891 23.6875C185.82 23.1562 185.785 22.6211 185.785 22.082ZM186.184 17.2539L186.195 19.2227H184.988C184.676 19.2227 184.402 19.2734 184.168 19.375C183.941 19.4766 183.75 19.6211 183.594 19.8086C183.438 19.9883 183.32 20.1992 183.242 20.4414C183.172 20.6836 183.137 20.9414 183.137 21.2148C183.137 21.5195 183.18 21.7773 183.266 21.9883C183.352 22.1992 183.48 22.3594 183.652 22.4688C183.824 22.5781 184.027 22.6328 184.262 22.6328C184.621 22.6328 184.934 22.5586 185.199 22.4102C185.465 22.2617 185.66 22.082 185.785 21.8711C185.918 21.6602 185.961 21.4648 185.914 21.2852L186.664 22.5625C186.57 22.8516 186.441 23.1523 186.277 23.4648C186.121 23.7773 185.922 24.0664 185.68 24.332C185.438 24.5977 185.137 24.8164 184.777 24.9883C184.426 25.1523 184.008 25.2344 183.523 25.2344C182.844 25.2344 182.223 25.0781 181.66 24.7656C181.098 24.4531 180.652 24.0156 180.324 23.4531C180.004 22.8906 179.844 22.2227 179.844 21.4492C179.844 20.8086 179.945 20.2305 180.148 19.7148C180.359 19.1914 180.672 18.75 181.086 18.3906C181.5 18.0234 182.023 17.7422 182.656 17.5469C183.289 17.3516 184.031 17.2539 184.883 17.2539H186.184ZM194.797 15.1445V25H191.516V12.3203H194.609L194.797 15.1445ZM197.785 12.2266L197.738 15.4961C197.59 15.4648 197.41 15.4414 197.199 15.4258C196.996 15.4102 196.816 15.4023 196.66 15.4023C196.293 15.4023 195.98 15.4609 195.723 15.5781C195.465 15.6875 195.25 15.8555 195.078 16.082C194.914 16.3008 194.789 16.5742 194.703 16.9023C194.617 17.2305 194.566 17.6016 194.551 18.0156L193.93 17.7812C193.93 16.9531 193.992 16.1953 194.117 15.5078C194.25 14.8125 194.445 14.2109 194.703 13.7031C194.961 13.1875 195.27 12.7891 195.629 12.5078C195.996 12.2266 196.41 12.0859 196.871 12.0859C197.027 12.0859 197.191 12.1016 197.363 12.1328C197.543 12.1562 197.684 12.1875 197.785 12.2266ZM205.367 22.1992V7H208.66V25L205.684 25.0117L205.367 22.1992ZM198.793 19.1055V18.2617C198.793 17.2305 198.879 16.3281 199.051 15.5547C199.23 14.7812 199.496 14.1367 199.848 13.6211C200.199 13.1055 200.629 12.7227 201.137 12.4727C201.652 12.2148 202.242 12.0859 202.906 12.0859C203.508 12.0859 204.035 12.2383 204.488 12.543C204.949 12.8398 205.34 13.2578 205.66 13.7969C205.98 14.3359 206.238 14.9727 206.434 15.707C206.629 16.4414 206.766 17.2461 206.844 18.1211V19.3398C206.75 20.168 206.605 20.9414 206.41 21.6602C206.223 22.3789 205.965 23.0039 205.637 23.5352C205.316 24.0664 204.93 24.4844 204.477 24.7891C204.023 25.0859 203.496 25.2344 202.895 25.2344C202.23 25.2344 201.641 25.1016 201.125 24.8359C200.617 24.5703 200.188 24.1797 199.836 23.6641C199.492 23.1406 199.23 22.5 199.051 21.7422C198.879 20.9766 198.793 20.0977 198.793 19.1055ZM202.074 18.2617V19.1055C202.074 19.6992 202.102 20.2109 202.156 20.6406C202.219 21.0625 202.316 21.4102 202.449 21.6836C202.59 21.9492 202.773 22.1484 203 22.2812C203.227 22.4062 203.508 22.4688 203.844 22.4688C204.281 22.4688 204.637 22.3594 204.91 22.1406C205.184 21.9141 205.387 21.6055 205.52 21.2148C205.66 20.8164 205.738 20.3594 205.754 19.8438V17.6289C205.738 17.1992 205.688 16.8125 205.602 16.4688C205.516 16.125 205.395 15.832 205.238 15.5898C205.082 15.3477 204.887 15.1602 204.652 15.0273C204.426 14.8945 204.16 14.8281 203.855 14.8281C203.527 14.8281 203.246 14.8945 203.012 15.0273C202.785 15.1602 202.605 15.3672 202.473 15.6484C202.34 15.9219 202.238 16.2773 202.168 16.7148C202.105 17.1445 202.074 17.6602 202.074 18.2617Z" fill="black"/>
<path d="M20.1369 29C22.8983 29 25.1842 26.7425 24.6732 24.0288C24.3528 22.3274 23.8679 20.6594 23.2235 19.0502C21.9602 15.8958 20.1087 13.0295 17.7745 10.6152C15.4403 8.20085 12.6692 6.2857 9.61949 4.97908C8.11383 4.33401 6.55481 3.84349 4.96489 3.51215C2.26154 2.94877 0 5.23853 0 7.99995V24C0 26.7614 2.23858 29 5 29H20.1369Z" fill="#615DFF"/>
<g style="mix-blend-mode:multiply">
<path d="M13.701 29C10.9396 29 8.65362 26.7425 9.16469 24.0288C9.48511 22.3274 9.96998 20.6594 10.6144 19.0502C11.8777 15.8958 13.7292 13.0295 16.0634 10.6152C18.3976 8.20085 21.1687 6.2857 24.2184 4.97908C25.7241 4.33401 27.2831 3.84349 28.873 3.51215C31.5764 2.94877 33.8379 5.23853 33.8379 7.99995V24C33.8379 26.7614 31.5993 29 28.8379 29H13.701Z" fill="#3DD9EB"/>
</g>
</svg>
