<svg width="28" height="20" viewBox="0 0 28 20" fill="none" xmlns="http://www.w3.org/2000/svg">
<g clip-path="url(#clip0_20_6)">
<path d="M28 0H-2.15386C-3.29633 0 -4.39201 0.324175 -5.19985 0.90121C-6.0077 1.47824 -6.46155 2.26087 -6.46155 3.07692L-6.46155 10H32.3077V3.07692C32.3077 2.26087 31.8538 1.47824 31.046 0.90121C30.2381 0.324175 29.1425 0 28 0Z" fill="#005BBB"/>
<path d="M32.3077 16.9231C32.3077 17.7391 31.8538 18.5218 31.046 19.0988C30.2381 19.6758 29.1425 20 28 20H-2.15386C-3.29633 20 -4.39201 19.6758 -5.19985 19.0988C-6.0077 18.5218 -6.46155 17.7391 -6.46155 16.9231V10H32.3077V16.9231Z" fill="#FFD500"/>
</g>
<defs>
<clipPath id="clip0_20_6">
<rect width="28" height="20" rx="5" fill="white"/>
</clipPath>
</defs>
</svg>
